<svg xmlns="http://www.w3.org/2000/svg" width="179.199" height="179.199" viewBox="0 0 4741 4741" shape-rendering="geometricPrecision" text-rendering="geometricPrecision" image-rendering="optimizeQuality" fill-rule="evenodd" clip-rule="evenodd"><path d="M922 2897h552v-552H922v552zm2328 0h552v-552h-552v552zM922 2125h552v-552H922v552zm776 0h552v-552h-552v552zm776 0h552v-552h-552v552zm776 0h552v-552h-552v552zm-1552 772h552v-552h-552v552zm0 772h552v-552h-552v552zm1552 0h552v-552h-552v552zm-776 0h552v-552h-552v552zm-1552 0h552v-552H922v552z" fill="#49a6d1"/><path d="M3362 680h393v229h544v3152H443V909h526V680h458v229h1870V680h65zm-823 2152h422v-422h-422v422zm487 130h-617v-682h682v682h-65zM969 1039H573v2892h3596V1039h-414v228h-458v-228H1427v228H969v-228zm328-229h-198v327h198V810zm2328 0h-198v327h198V810z" fill-rule="nonzero"/></svg>