<svg xmlns="http://www.w3.org/2000/svg" width="179.199" height="179.199" viewBox="0 0 4741 4741" shape-rendering="geometricPrecision" text-rendering="geometricPrecision" image-rendering="optimizeQuality" fill-rule="evenodd" clip-rule="evenodd"><defs><style>.fil1{fill:#000;fill-rule:nonzero}</style></defs><g id="Слой_x0020_1"><g id="_553198448"><path d="M4393 2236c-126-983-905-1762-1888-1888v1888h1888z" fill="#49a6d1"/><path class="fil1" d="M2224 4263c483 0 919-195 1235-511s512-753 512-1235-196-919-512-1235-752-511-1235-511c-482 0-918 195-1234 511s-512 753-512 1235 196 919 512 1235 752 511 1234 511zm1327-419c-339 339-809 549-1327 549s-987-210-1326-549c-340-340-550-809-550-1327s210-987 550-1327c339-339 808-549 1326-549s988 210 1327 549c340 340 550 809 550 1327s-210 987-550 1327z"/><path class="fil1" d="M2289 1085v1367h1747v130H2159V1085z"/></g></g></svg>