<svg xmlns="http://www.w3.org/2000/svg" width="179.199" height="179.199" viewBox="0 0 4741 4741" shape-rendering="geometricPrecision" text-rendering="geometricPrecision" image-rendering="optimizeQuality" fill-rule="evenodd" clip-rule="evenodd"><defs><style>.fil1{fill:#000;fill-rule:nonzero}</style></defs><g id="Слой_x0020_1"><g id="_553223840"><path d="M2686 2926l-252-252 240-240 252 252c154-61 336-29 460 95l581 580c166 167 166 439 0 606-167 166-439 166-606 0l-580-581c-124-124-156-306-95-460zm-620-620l-871-871H963L666 919l126-126 127-127 516 297v232l871 871-240 240z" fill="#49a6d1"/><path class="fil1" d="M2611 2943l-223-223 92-92 252 252 30 30-16 39c-26 67-32 140-18 209 14 67 47 131 99 182l580 581c71 70 164 106 257 106s186-36 257-106c70-71 106-164 106-257s-35-186-106-257l-581-580c-51-52-115-85-182-99-69-14-142-8-209 18l-39 16-30-30-252-252 92-92 223 223c78-23 161-26 241-10 91 19 178 64 248 134l581 580c96 96 143 222 143 349h1c0 126-48 253-144 349s-223 144-349 144c-127 0-253-48-349-144l-580-581c-70-70-115-157-134-248-16-80-13-163 10-241zm-591-591l-852-852H926l-19-33-297-515-25-44 35-35 127-126 126-127 35-35 44 25 515 297 33 19v242l852 852-92 92-871-871-19-19v-221L930 747l-92 91-91 92 254 440h221l19 19 871 871-92 92z"/><path class="fil1" d="M4071 1068c76 159 100 337 71 508-29 167-107 326-236 454-128 129-288 207-454 236-156 27-318 9-466-51L1141 4059c-63 63-146 95-230 95-83 0-167-32-230-95s-95-147-95-230 32-167 95-230l1845-1845c-61-148-78-310-52-466 29-166 107-326 236-454 128-128 288-207 454-236 171-29 349-5 509 71l82 39-64 65-475 475 276 276 475-475 65-64 39 83zm-57 486c19-114 11-232-25-343l-451 451-46 46-46-46-368-368-46-46 46-46 451-451c-111-36-229-44-343-25-141 25-276 91-384 200-109 109-176 244-200 384-25 145-5 296 60 431l19 41-32 33L773 3691c-38 38-57 88-57 138s19 100 57 138 88 57 138 57 100-19 138-57l1876-1876 33-32 41 19c135 65 286 85 431 60 141-24 276-91 384-200 109-108 176-243 200-384z"/></g></g></svg>