<?xml version="1.0" encoding="utf-8"?>
<!-- Generator: Adobe Illustrator 22.1.0, SVG Export Plug-In . SVG Version: 6.00 Build 0)  -->
<svg version="1.1" xmlns="http://www.w3.org/2000/svg" xmlns:xlink="http://www.w3.org/1999/xlink" x="0px" y="0px"
	 viewBox="0 0 174 139.4" style="enable-background:new 0 0 174 139.4;" xml:space="preserve">
<style type="text/css">
	.st0{fill:#65B4D8;stroke:#000000;stroke-width:4;stroke-miterlimit:10;}
	.st1{fill:#65B4D8;}
</style>
<g id="Layer_1" shape-rendering="geometricPrecision" image-rendering="optimizeQuality" text-rendering="geometricPrecision">
	<path class="st0" d="M86.8,11.1c2.4-1.9,5.7-3.3,9.5-4.4c11.1-3.3,26.9-4.1,31-4.1c11.6,0,22.1,1.4,29.8,3.7
		c9.3,2.8,15,7.2,15,12.7v109.1c0,1.5-0.5,2.8-1.4,3.9c-0.1,0.2-0.3,0.3-0.4,0.4c-0.5,0.5-1.1,0.9-1.7,1.3c-0.9,0.4-1.8,0.7-2.8,0.7
		c-1.3,0-2.7-0.4-3.9-1.3c-5.7-4.4-21.7-6.4-37.4-6.1c-15,0.3-29.1,2.6-32.8,6.8c-0.3,0.4-0.7,0.7-1.1,1c-0.8,1.2-2.2,1.9-3.8,1.9
		c-1.6,0-2.9-0.8-3.8-1.9c-0.4-0.3-0.7-0.6-1.1-1c-3.6-4.3-17.8-6.6-32.8-6.8c-15.7-0.3-31.7,1.8-37.4,6.1c-1.2,0.9-2.5,1.3-3.9,1.3
		c-1,0-1.9-0.2-2.8-0.7c-0.8-0.4-1.6-1-2.1-1.7c-0.8-1-1.4-2.4-1.4-3.9V19.1c0-5.5,5.7-9.9,15-12.7c7.7-2.3,18.3-3.7,29.8-3.7
		c11.6,0,22.1,1.4,29.8,3.7C80.8,7.6,84.3,9.2,86.8,11.1z M91.6,19.1v104.6c7.9-3.5,20.3-5.3,32.9-5.5c14.5-0.3,29.6,1.6,38.6,5.4
		V19.1c0-1.1-3.3-2.7-8.6-4.3c-6.9-2-16.5-3.3-27.2-3.3c-3.8,0-18.4,0.7-28.4,3.7C94.7,16.4,91.6,17.8,91.6,19.1z M82.4,123.6V19.1
		c0-1.1-3.3-2.7-8.6-4.3c-6.9-2-16.5-3.3-27.2-3.3c-10.7,0-20.3,1.3-27.2,3.3c-5.3,1.6-8.6,3.1-8.6,4.3v104.5
		c8.9-3.9,24.1-5.7,38.6-5.4C62.1,118.4,74.5,120.2,82.4,123.6z"/>
</g>
<g id="Layer_2">
	<path class="st1" d="M24.8,41.7c-2.5,0.5-4.9-1-5.4-3.4c-0.5-2.4,1-4.7,3.5-5.3c3.4-0.7,7.3-1.3,11.6-1.7c4.1-0.4,8.3-0.6,12.6-0.6
		c4.3,0,8.5,0.2,12.6,0.6c4.2,0.4,8.1,1,11.6,1.7c2.5,0.5,4,2.9,3.5,5.3c-0.5,2.4-3,3.9-5.4,3.4c-3.2-0.7-6.8-1.2-10.5-1.6
		c-3.6-0.3-7.5-0.5-11.7-0.5c-4.2,0-8.1,0.2-11.7,0.5C31.6,40.4,28,41,24.8,41.7z"/>
	<path class="st1" d="M151.8,80.4c2.5,0.5,4,2.9,3.5,5.3s-3,3.9-5.4,3.4c-3.2-0.7-6.8-1.2-10.5-1.6c-3.6-0.3-7.5-0.5-11.7-0.5
		c-4.2,0-8.1,0.2-11.7,0.5c-3.7,0.4-7.3,0.9-10.5,1.6c-2.5,0.5-4.9-1-5.4-3.4c-0.5-2.4,1-4.7,3.5-5.3c3.4-0.7,7.3-1.3,11.6-1.7
		c4.1-0.4,8.3-0.6,12.6-0.6c4.3,0,8.5,0.2,12.6,0.6C144.5,79.2,148.3,79.7,151.8,80.4L151.8,80.4z"/>
	<path class="st1" d="M151.8,56.8c2.5,0.5,4,2.9,3.5,5.3c-0.5,2.4-3,3.9-5.4,3.4c-3.2-0.7-6.8-1.2-10.5-1.6
		c-3.6-0.3-7.5-0.5-11.7-0.5c-4.2,0-8.1,0.2-11.7,0.5c-3.7,0.4-7.3,0.9-10.5,1.6c-2.5,0.5-4.9-1-5.4-3.4c-0.5-2.4,1-4.7,3.5-5.3
		c3.4-0.7,7.3-1.3,11.6-1.7c4.1-0.4,8.3-0.6,12.6-0.6c4.3,0,8.5,0.2,12.6,0.6C144.5,55.5,148.3,56.1,151.8,56.8L151.8,56.8z"/>
	<path class="st1" d="M151.8,33c2.5,0.5,4,2.9,3.5,5.3c-0.5,2.4-3,3.9-5.4,3.4c-3.2-0.7-6.8-1.2-10.5-1.6c-3.6-0.3-7.5-0.5-11.7-0.5
		c-4.2,0-8.1,0.2-11.7,0.5c-3.7,0.4-7.3,0.9-10.5,1.6c-2.5,0.5-4.9-1-5.4-3.4c-0.5-2.4,1-4.7,3.5-5.3c3.4-0.7,7.3-1.3,11.6-1.7
		c4.1-0.4,8.3-0.6,12.6-0.6c4.3,0,8.5,0.2,12.6,0.6C144.5,31.7,148.3,32.3,151.8,33L151.8,33z"/>
	<path class="st1" d="M24.8,89.1c-2.5,0.5-4.9-1-5.4-3.4c-0.5-2.4,1-4.7,3.5-5.3c3.4-0.7,7.3-1.3,11.6-1.7c4.1-0.4,8.3-0.6,12.6-0.6
		c4.3,0,8.5,0.2,12.6,0.6c4.2,0.4,8.1,1,11.6,1.7c2.5,0.5,4,2.9,3.5,5.3c-0.5,2.4-3,3.9-5.4,3.4c-3.2-0.7-6.8-1.2-10.5-1.6
		C55.2,87.2,51.2,87,47,87c-4.2,0-8.1,0.2-11.7,0.5C31.6,87.9,28,88.4,24.8,89.1z"/>
	<path class="st1" d="M24.8,65.5c-2.5,0.5-4.9-1-5.4-3.4c-0.5-2.4,1-4.7,3.5-5.3c3.4-0.7,7.3-1.3,11.6-1.7c4.1-0.4,8.3-0.6,12.6-0.6
		c4.3,0,8.5,0.2,12.6,0.6c4.2,0.4,8.1,1,11.6,1.7c2.5,0.5,4,2.9,3.5,5.3c-0.5,2.4-3,3.9-5.4,3.4c-3.2-0.7-6.8-1.2-10.5-1.6
		c-3.6-0.3-7.5-0.5-11.7-0.5c-4.2,0-8.1,0.2-11.7,0.5C31.6,64.3,28,64.8,24.8,65.5z"/>
</g>
</svg>
