<svg xmlns="http://www.w3.org/2000/svg" width="179.199" height="179.199" viewBox="0 0 4741 4741" shape-rendering="geometricPrecision" text-rendering="geometricPrecision" image-rendering="optimizeQuality" fill-rule="evenodd" clip-rule="evenodd"><defs><style>.str0{stroke:#000;stroke-width:130}.fil0{fill:#000;fill-rule:nonzero}</style></defs><g id="Слой_x0020_1"><g id="_553195400"><path class="fil0" d="M2371 4027c379 0 722-87 969-229 236-135 382-318 382-516v-946l-1319 755-32 19-33-19-1319-755v946c0 198 146 381 382 516 247 142 590 229 970 229zm1034-116c-266 152-632 246-1034 246-403 0-769-94-1034-246-277-158-448-381-448-629V2112l97 56 1385 792 1384-792 97-56v1170c0 248-171 471-447 629z"/><path class="fil0" d="M-33 1622L2338 265l33-19 32 19 2372 1357 98 56-98 56-2372 1357-32 19-33-19L-33 1734l-99-56 99-56zM2371 396L130 1678l2241 1282 2241-1282L2371 396z"/><path fill="#49a6d1" d="M666 1678l1705 975 1704-975-1704-976z"/><path class="str0" fill="none" d="M2371 1678l-1183 683v1947h99"/><path class="str0" d="M1188 4495c103 0 187-84 187-187 0-104-84-188-187-188-52 0-99 21-133 55s-55 81-55 133c0 103 84 187 188 187z" fill="#fff"/></g></g></svg>