<svg xmlns="http://www.w3.org/2000/svg" width="179.199" height="179.199" viewBox="0 0 4741 4741" shape-rendering="geometricPrecision" text-rendering="geometricPrecision" image-rendering="optimizeQuality" fill-rule="evenodd" clip-rule="evenodd"><path d="M2044 523l64-11 23 128-65 11c-412 73-775 290-1034 598-254 304-407 695-407 1122 0 482 195 918 511 1234 280 280 653 465 1070 504l-213-213-47-46 93-92 46 46 378 378c-107 106-250 250-378 378l-46 46-93-92 47-46 226-227c-457-37-869-237-1175-544-340-339-550-808-550-1326 0-459 165-879 438-1205 278-331 668-565 1112-643zm234 37c127-126 253-253 379-379l46-46 92 93-46 46-227 226c458 37 869 238 1175 544 340 339 550 809 550 1327 0 457-164 875-435 1201-276 331-664 565-1106 645l-64 11-23-128 64-11c411-74 772-292 1029-600 253-303 405-693 405-1118 0-482-196-919-512-1235-279-279-653-464-1069-504l213 213 46 47-92 92-46-46c-126-126-252-252-379-378z" fill-rule="nonzero"/><path d="M2371 1090c707 0 1280 573 1280 1281 0 707-573 1280-1280 1280-708 0-1281-573-1281-1280 0-708 573-1281 1281-1281z" fill="#49a6d1"/><path d="M2287 2505c-72 0-132-60-132-132 0-73 60-132 132-132 70 0 127 55 132 123h105c-4-127-109-229-237-229-131 0-238 107-238 238s107 237 238 237h1004v-105H2287zm-721-262v519h105v-624h-220v105h115zm149-159h-176v-105h281v783h-105v-678zm1576 571v105H2287c-213 0-387-174-387-387s174-387 387-387c211 0 383 169 387 378h-105c-5-151-129-273-282-273-155 0-281 127-281 282s126 282 281 282h1004z" fill="#fff"/></svg>